<svg width="397" height="122" viewBox="0 0 397 122" fill="none" xmlns="http://www.w3.org/2000/svg">
<rect width="397" height="122" rx="61" fill="#A0A0AF"/>
<path d="M104.156 58.8125C103.281 58.8125 102.448 58.6458 101.656 58.3125C100.885 57.9583 100.208 57.5 99.625 56.9375C99.0417 56.3542 98.5833 55.6771 98.25 54.9062C97.9167 54.1146 97.75 53.2812 97.75 52.4062V39.5938C97.75 38.7188 97.9167 37.8958 98.25 37.125C98.5833 36.3333 99.0417 35.6562 99.625 35.0938C100.208 34.5104 100.885 34.0521 101.656 33.7188C102.448 33.3646 103.281 33.1875 104.156 33.1875H125.906C126.781 33.1875 127.604 33.3646 128.375 33.7188C129.167 34.0521 129.854 34.5104 130.438 35.0938C131.021 35.6562 131.479 36.3333 131.812 37.125C132.146 37.8958 132.312 38.7188 132.312 39.5938V45.375H125.906V39.5938H104.156V52.4062H125.906C126.781 52.4062 127.604 52.5729 128.375 52.9062C129.167 53.2396 129.854 53.6979 130.438 54.2812C131.021 54.8646 131.479 55.5521 131.812 56.3438C132.146 57.1146 132.312 57.9375 132.312 58.8125V71.5938C132.312 72.4688 132.146 73.3021 131.812 74.0938C131.479 74.8646 131.021 75.5417 130.438 76.125C129.854 76.7083 129.167 77.1667 128.375 77.5C127.604 77.8333 126.781 78 125.906 78H103.531C102.656 78 101.823 77.8333 101.031 77.5C100.26 77.1667 99.5833 76.7083 99 76.125C98.4167 75.5417 97.9583 74.8646 97.625 74.0938C97.2917 73.3021 97.125 72.4688 97.125 71.5938V65.8438H103.531V71.5938H125.906V58.8125H104.156ZM140.031 33.1875H175.875V39.5938H161.156V78H154.75V39.5938H140.031V33.1875ZM198.281 33.1875L215.562 78H209.156L205.188 67.6875H184.969L181 78H174.594L191.875 33.1875H198.281ZM187.406 61.2812H202.719L195.094 41.5312L187.406 61.2812ZM258.656 49.1875C258.656 55.4375 255.99 59 250.656 59.875L259.094 78H252L243.688 60.0938H229.656V78H223.25V33.1875H247.781C255.031 33.1875 258.656 36.8229 258.656 44.0938V49.1875ZM229.656 53.6875H247.438C249.146 53.6875 250.375 53.3125 251.125 52.5625C251.875 51.8125 252.25 50.5833 252.25 48.875V44.4062C252.25 42.6979 251.875 41.4688 251.125 40.7188C250.375 39.9688 249.146 39.5938 247.438 39.5938H229.656V53.6875ZM265.531 33.1875H301.375V39.5938H286.656V78H280.25V39.5938H265.531V33.1875Z" fill="black"/>
</svg>
